<svg aria-hidden="true" style="position: absolute; width: 0; height: 0; overflow: hidden;" version="1.1" xmlns="http://www.w3.org/2000/svg" xmlns:xlink="http://www.w3.org/1999/xlink">
<defs>
<symbol id="icon-logo" viewBox="0 0 89 32">
<title>logo</title>
<path fill="#faced9" style="fill: var(--color1, #faced9)" d="M4.712 30.613c0-0.523 14.267-0.8 41.2-0.8h41.2v-12.8c0-8 0.3-12.8 0.8-12.8 0.502 0 0.8 5.067 0.8 13.6v13.6h-42c-27.467 0-42-0.277-42-0.8zM1.512 14.613v-13.6h42c27.467 0 42 0.277 42 0.8s-14.267 0.8-41.2 0.8h-41.2v12.8c0 8-0.3 12.8-0.8 12.8-0.502 0-0.8-5.067-0.8-13.6z"></path>
<path fill="#f48eaa" style="fill: var(--color2, #f48eaa)" d="M2.312 29.013c-0.721-0.466-0.82-0.78-0.247-0.788 0.524-0.007 1.175 0.348 1.447 0.788 0.614 0.993 0.337 0.993-1.2 0zM30.497 22.613c0-1.54 0.165-2.17 0.366-1.4s0.201 2.030 0 2.8c-0.201 0.77-0.366 0.14-0.366-1.4zM43.417 15.813c0.002-5.28 0.131-7.336 0.288-4.569s0.155 7.087-0.003 9.6c-0.158 2.513-0.286 0.249-0.285-5.031zM50.617 15.813c0.002-5.28 0.131-7.336 0.288-4.569s0.155 7.087-0.003 9.6c-0.158 2.513-0.286 0.249-0.285-5.031zM13.786 15.813c0.003-3.52 0.144-4.86 0.313-2.979s0.167 4.762-0.005 6.4c-0.172 1.638-0.31 0.099-0.307-3.421zM68.174 15.813c0.004-3.080 0.148-4.242 0.321-2.582s0.17 4.18-0.006 5.6c-0.177 1.42-0.318 0.062-0.315-3.018zM80.159 16.613c0.005-2.64 0.154-3.624 0.332-2.186s0.174 3.598-0.008 4.8c-0.183 1.202-0.328 0.026-0.324-2.614zM23.267 15.813c0.016-1.32 0.196-1.763 0.398-0.985s0.189 1.858-0.030 2.4c-0.219 0.542-0.385-0.095-0.369-1.415zM30.438 11.413c0-1.1 0.182-1.55 0.404-1s0.222 1.45 0 2c-0.222 0.55-0.404 0.1-0.404-1zM86.295 2.994c-1.471-1.772-0.634-1.976 1.016-0.247 0.77 0.807 1.084 1.467 0.698 1.467s-1.157-0.549-1.714-1.219z"></path>
<path fill="#f27899" style="fill: var(--color3, #f27899)" d="M1.512 30.213c0-1.346 0.147-1.4 1.93-0.716 1.465 0.562 0.915 1.916-0.777 1.916-0.634 0-1.153-0.54-1.153-1.2zM86.845 2.88c-0.921-0.921-0.583-1.867 0.667-1.867 0.66 0 1.2 0.54 1.2 1.2 0 1.249-0.946 1.587-1.867 0.667z"></path>
<path fill="#f05c84" style="fill: var(--color4, #f05c84)" d="M61.791 18.613c0-3.74 0.138-5.27 0.306-3.4s0.168 4.93 0 6.8c-0.168 1.87-0.306 0.34-0.306-3.4z"></path>
<path fill="#ee4b76" style="fill: var(--color5, #ee4b76)" d="M38.438 11.413c0-1.1 0.182-1.55 0.404-1s0.222 1.45 0 2c-0.222 0.55-0.404 0.1-0.404-1z"></path>
<path fill="#e80c47" style="fill: var(--color6, #e80c47)" d="M10.312 15.714v-9.299l4.448 0.369c5.572 0.462 7.572 2.262 8.143 7.326 0.784 6.953-2.604 10.903-9.351 10.903h-3.24zM18.449 20.489c1.884-1.705 1.966-7.194 0.139-9.213-0.728-0.805-2.168-1.463-3.2-1.463-1.801 0-1.876 0.239-1.876 6 0 5.624 0.109 6 1.737 6 0.955 0 2.395-0.596 3.2-1.324zM27.111 15.813v-9.2h4.247c5.628 0 7.143 1.164 6.811 5.232-0.226 2.772-0.581 3.272-2.84 4.003l-2.582 0.835 3.644 4.165c3.332 3.809 3.487 4.165 1.816 4.165-1.029 0-3.154-1.295-4.862-2.962l-3.034-2.962v2.962c0 2.429-0.288 2.962-1.6 2.962-1.507 0-1.6-0.533-1.6-9.2zM35.511 11.413c0-0.769-0.934-1.29-2.6-1.451-2.197-0.212-2.6 0.013-2.6 1.451s0.403 1.662 2.6 1.451c1.666-0.161 2.6-0.682 2.6-1.451zM43.911 15.813c0-8.667 0.093-9.2 1.6-9.2s1.6 0.533 1.6 9.2c0 8.667-0.093 9.2-1.6 9.2s-1.6-0.533-1.6-9.2zM51.111 15.813v-9.2h2.733c2.261 0 2.866 0.38 3.505 2.2l0.771 2.2 0.876-2.2c0.724-1.818 1.365-2.2 3.695-2.2h2.82v9.2c0 8.667-0.093 9.2-1.6 9.2-1.473 0-1.605-0.555-1.665-7-0.071-7.604-0.089-7.601-3.297 0.6-0.74 1.891-0.885 1.738-2.654-2.8l-1.871-4.8-0.056 7c-0.052 6.448-0.183 7-1.656 7-1.507 0-1.6-0.533-1.6-9.2zM70.311 23.413c-1.316-1.316-1.6-2.667-1.6-7.6s0.284-6.284 1.6-7.6c1.914-1.914 5.372-2.071 7.822-0.355 1.584 1.109 1.778 1.94 1.778 7.6 0 7.256-1.347 9.555-5.6 9.555-1.333 0-3.111-0.711-4-1.6zM76.548 15.557l0.236-5.857-2.236 0.257c-2.133 0.245-2.247 0.473-2.479 4.967-0.302 5.853 0.139 7.072 2.44 6.746 1.658-0.235 1.823-0.729 2.040-6.113z"></path>
</symbol>
<symbol id="icon-logo-2" viewBox="0 0 107 32">
<title>logo-2</title>
<path fill="#f8bbcc" style="fill: var(--color7, #f8bbcc)" d="M30.667 28.085c0-2.2 0.496-4 1.102-4s0.838 1.8 0.515 4c-0.323 2.2-0.819 4-1.102 4s-0.515-1.8-0.515-4zM64.466 21.419c0-6.233 0.23-8.783 0.51-5.667s0.281 8.217 0 11.333c-0.281 3.117-0.51 0.567-0.51-5.667zM30.772 8.641c0.064-1.553 0.38-1.869 0.806-0.806 0.385 0.962 0.338 2.112-0.105 2.556s-0.758-0.344-0.7-1.75z"></path>
<path fill="#f48da8" style="fill: var(--color8, #f48da8)" d="M24.514 16.085c0-9.167 0.213-12.917 0.473-8.333s0.26 12.083 0 16.667c-0.26 4.583-0.473 0.833-0.473-8.333zM57.847 16.085c0-9.167 0.213-12.917 0.473-8.333s0.26 12.083 0 16.667c-0.26 4.583-0.473 0.833-0.473-8.333z"></path>
<path fill="#ee527c" style="fill: var(--color9, #ee527c)" d="M55.18 16.085c0-9.167 0.213-12.917 0.473-8.333s0.26 12.083 0 16.667c-0.26 4.583-0.473 0.833-0.473-8.333zM83.18 16.085c0-9.167 0.213-12.917 0.473-8.333s0.26 12.083 0 16.667c-0.26 4.583-0.473 0.833-0.473-8.333zM43.83 28.419c-1.659-2.115-1.611-2.162 0.503-0.503 2.221 1.742 2.927 2.837 1.83 2.837-0.277 0-1.327-1.050-2.333-2.333zM5.782 16.085c0-5.5 0.235-7.75 0.523-5s0.288 7.25 0 10c-0.288 2.75-0.523 0.5-0.523-5zM105.771 15.419c0.006-5.133 0.247-7.070 0.536-4.304s0.284 6.966-0.011 9.333c-0.294 2.367-0.531 0.104-0.525-5.030z"></path>
<path fill="#ec3365" style="fill: var(--color10, #ec3365)" d="M37.916 22.419l-3.916-4.333 4.333 3.916c4.039 3.65 4.946 4.751 3.916 4.751-0.229 0-2.179-1.95-4.333-4.333zM85.76 16.085c0-4.767 0.242-6.717 0.538-4.333s0.296 6.283 0 8.667c-0.296 2.383-0.538 0.433-0.538-4.333z"></path>
<path fill="#e9114b" style="fill: var(--color11, #e9114b)" d="M91.093 16.085c0-4.767 0.242-6.717 0.538-4.333s0.296 6.283 0 8.667c-0.296 2.383-0.538 0.433-0.538-4.333zM44.105 8.641c0.064-1.553 0.38-1.869 0.806-0.806 0.385 0.962 0.338 2.112-0.105 2.556s-0.758-0.344-0.7-1.75z"></path>
<path fill="#e8003e" style="fill: var(--color12, #e8003e)" d="M0 16.085v-16h5.4c6.383 0 12.585 2.9 14.715 6.88 2.277 4.255 1.873 14.881-0.715 18.832-2.527 3.857-8.3 6.288-14.931 6.288h-4.468zM15.258 22.455c4.537-6.478 1.012-15.703-6-15.703h-3.924v18.667h3.924c2.544 0 4.655-1.042 6-2.963zM25.333 16.085v-16h6.37c8.385 0 12.297 2.757 12.297 8.667 0 4.894-3.737 8.667-8.584 8.667-2.099 0-1.136 1.541 4.584 7.333 6.861 6.947 7.059 7.333 3.759 7.333-2.311 0-4.861-1.57-7.58-4.667-2.254-2.567-4.416-4.667-4.805-4.667s-0.707 2.1-0.707 4.667c0 3.778-0.508 4.667-2.667 4.667-2.519 0-2.667-0.889-2.667-16zM40 8.752c0-1.397-1.407-2-4.667-2s-4.667 0.603-4.667 2c0 1.397 1.407 2 4.667 2s4.667-0.603 4.667-2zM49.333 16.085c0-15.111 0.148-16 2.667-16s2.667 0.889 2.667 16c0 15.111-0.148 16-2.667 16s-2.667-0.889-2.667-16zM58.667 16.085v-16h4.536c3.894 0 4.767 0.613 6.167 4.333l1.631 4.333 1.359-4.333c1.178-3.758 1.953-4.333 5.833-4.333h4.474v16c0 15.111-0.148 16-2.667 16-2.467 0-2.675-0.924-2.772-12.333l-0.105-12.333-2.675 7.675c-1.471 4.221-3.178 7.364-3.793 6.984s-2.213-3.834-3.553-7.675l-2.435-6.984-0.383 12.333c-0.349 11.236-0.616 12.333-3 12.333-2.455 0-2.617-0.991-2.617-16zM91.333 30.492c-1.467-0.832-3.107-2.163-3.646-2.959-1.46-2.158-1.223-20.577 0.302-23.427 2.588-4.835 12.971-4.509 16.324 0.512 0.539 0.807 0.989 6.074 1 11.704 0.019 9.482-0.238 10.44-3.493 13-3.937 3.097-6.57 3.391-10.487 1.17zM100 16.001v-9.418l-4.333 0.418c-4.241 0.409-4.342 0.571-4.742 7.592-0.532 9.33 0.164 10.826 5.034 10.826h4.042z"></path>
</symbol>
</defs>
</svg>
