<?xml version="1.0" encoding="UTF-8" standalone="no"?>
<!-- Created with Inkscape (http://www.inkscape.org/) -->

<svg
   xmlns:dc="http://purl.org/dc/elements/1.1/"
   xmlns:cc="http://creativecommons.org/ns#"
   xmlns:rdf="http://www.w3.org/1999/02/22-rdf-syntax-ns#"
   xmlns:svg="http://www.w3.org/2000/svg"
   xmlns="http://www.w3.org/2000/svg"
   xmlns:sodipodi="http://sodipodi.sourceforge.net/DTD/sodipodi-0.dtd"
   xmlns:inkscape="http://www.inkscape.org/namespaces/inkscape"
   version="1.1"
   id="svg10"
   width="92"
   height="75"
   viewBox="0 0 92 75"
   sodipodi:docname="inbox-gd.svg"
   inkscape:version="0.92.4 (5da689c313, 2019-01-14)">
  <metadata
     id="metadata16">
    <rdf:RDF>
      <cc:Work
         rdf:about="">
        <dc:format>image/svg+xml</dc:format>
        <dc:type
           rdf:resource="http://purl.org/dc/dcmitype/StillImage" />
        <dc:title></dc:title>
      </cc:Work>
    </rdf:RDF>
  </metadata>
  <defs
     id="defs14" />
  <sodipodi:namedview
     pagecolor="#ffffff"
     bordercolor="#666666"
     borderopacity="1"
     objecttolerance="10"
     gridtolerance="10"
     guidetolerance="10"
     inkscape:pageopacity="0"
     inkscape:pageshadow="2"
     inkscape:window-width="640"
     inkscape:window-height="480"
     id="namedview12"
     showgrid="false"
     inkscape:zoom="5.6533333"
     inkscape:cx="17.818394"
     inkscape:cy="49.516793"
     inkscape:current-layer="svg10" />
  <path
     inkscape:connector-curvature="0"
     id="path34"
     d="m 67.314859,74.099896 c -3.204779,-1.768138 -7.560682,-6.11008 -9.114957,-9.085745 l -1.436403,-2.75 H 28.789179 0.81485854 v -31 V 0.26415097 H 46.192742 91.570626 L 92.042062,31.514151 c 0.456564,30.264203 0.405551,31.371389 -1.617136,35.098057 -2.937097,5.411411 -8.852063,8.659998 -15.697925,8.621534 -2.976678,-0.01672 -6.312142,-0.526955 -7.412142,-1.133846 z m 18.5,-16.280954 c 0,-1.014664 -1.41508,-1.536009 -4.75,-1.75 l -4.75,-0.304791 -0.307498,-4.25 c -0.169124,-2.3375 -0.731624,-4.25 -1.25,-4.25 -1.060699,0 -1.311332,10.297836 -0.275835,11.333333 0.366666,0.366667 3.066666,0.666667 6,0.666667 3.984208,0 5.333333,-0.365581 5.333333,-1.445209 z"
     style="fill:#eeeadd" />
  <path
     inkscape:connector-curvature="0"
     id="path32"
     d="M 67.314859,73.691558 C 63.136001,71.518174 60.185211,68.572473 58.773944,65.165374 L 57.572218,62.264151 H 29.193539 0.81485854 V 31.07706 -0.11003144 L 3.5648585,2.3996068 c 1.5125,1.3803011 8.3750005,7.4015868 15.2500005,13.3806352 6.875,5.979048 15.054093,13.258902 18.175763,16.177453 4.234509,3.958981 6.434716,5.306456 8.664576,5.306456 3.020454,0 4.392196,-1.111898 36.587535,-29.6569009 L 90.314859,0.45034923 90.956075,25.60725 c 0.352669,13.836296 0.964727,26.847188 1.360129,28.913094 0.395402,2.065906 0.422159,5.338028 0.05946,7.271381 -0.804993,4.290981 -5.886693,10.292817 -10.263063,12.121382 -4.313297,1.80221 -11.102,1.700571 -14.797742,-0.221549 z M 56.52212,56.02581 c -0.239193,-1.243912 -0.443978,-0.461659 -0.455078,1.738341 -0.0111,2.2 0.184605,3.217747 0.434897,2.261659 0.250293,-0.956087 0.259374,-2.756087 0.02018,-4 z m 29.292739,1.738341 c 0,-1.108372 -1.160579,-1.5 -4.445209,-1.5 H 76.924441 L 76.61965,51.59232 c -0.170346,-2.611069 -0.856171,-4.853346 -1.554791,-5.083333 -0.915089,-0.301249 -1.25,1.352363 -1.25,6.171831 v 6.583333 h 6 c 4.666667,0 6,-0.333333 6,-1.5 z"
     style="fill:#e7e2d8" />
  <path
     inkscape:connector-curvature="0"
     id="path30"
     d="M 67.844612,73.680676 C 55.825551,68.467507 53.162527,54.135889 62.378268,44.262407 l 2.335086,-2.501745 -4.915831,-3.998255 c -2.703708,-2.199041 -4.818369,-4.498171 -4.699248,-5.109177 0.119121,-0.611007 8.091584,-7.957272 17.716584,-16.325035 l 17.5,-15.214113 0.622763,25.325035 c 0.34252,13.928768 0.955658,26.784562 1.36253,28.568429 1.119464,4.90812 -0.230656,9.896997 -3.768994,13.926941 -5.41267,6.164691 -13.263408,7.965914 -20.686546,4.746189 z M 85.814859,57.764151 c 0,-1.108372 -1.160579,-1.5 -4.445209,-1.5 H 76.924441 L 76.61965,51.59232 c -0.170346,-2.611069 -0.856171,-4.853346 -1.554791,-5.083333 -0.915089,-0.301249 -1.25,1.352363 -1.25,6.171831 v 6.583333 h 6 c 4.666667,0 6,-0.333333 6,-1.5 z M 0.81485854,31.886596 c 0,-16.842345 0.23811816,-30.622445 0.52915136,-30.622445 0.4212997,0 30.0254651,25.565669 35.2741251,30.462152 1.047184,0.97692 -2.096805,3.940247 -16,15.0806 C 11.101333,54.432528 2.7523585,61.085082 2.0648585,61.590358 1.0720715,62.320003 0.81485854,56.207849 0.81485854,31.886596 Z"
     style="fill:#e2dcd2" />
  <path
     inkscape:connector-curvature="0"
     id="path28"
     d="M 67.844612,73.736092 C 63.241335,71.66595 60.992192,69.528588 58.708449,65.053989 55.249936,58.277631 56.892992,49.796003 62.718387,44.35427 l 2.935509,-2.742177 -5.585814,-4.362576 -5.585814,-4.362577 4.416295,-3.924526 c 2.428963,-2.158489 10.582092,-9.28333 18.118064,-15.832979 L 90.718395,1.2209817 91.187437,26.492566 c 0.257973,13.899372 0.748792,27.521585 1.090709,30.271585 0.758677,6.101941 -1.206623,10.454397 -6.703449,14.845809 -4.571385,3.652077 -12.281095,4.576599 -17.730085,2.126132 z M 85.814859,57.764151 c 0,-1.108372 -1.160579,-1.5 -4.445209,-1.5 H 76.924441 L 76.61965,51.59232 c -0.170346,-2.611069 -0.856171,-4.853346 -1.554791,-5.083333 -0.915089,-0.301249 -1.25,1.352363 -1.25,6.171831 v 6.583333 h 6 c 4.666667,0 6,-0.333333 6,-1.5 z M 0.81485854,31.089837 V 0.91552292 L 3.0648585,2.9247623 C 4.3023585,4.029844 12.461908,11.176814 21.19719,18.806917 l 15.88233,13.872915 -3.38233,2.872814 C 26.463409,41.696725 1.8390714,61.264151 1.3409276,61.264151 c -0.289338,0 -0.52606906,-13.578441 -0.52606906,-30.174314 z"
     style="fill:#dad5cc" />
  <path
     inkscape:connector-curvature="0"
     id="path26"
     d="M 67.23626,73.36782 C 54.166702,67.431922 53.579049,50.038973 66.180689,42.125771 70.945256,39.13386 81.283705,39.858905 86.085935,43.521745 93.242308,48.980176 94.825154,60.628668 89.380484,67.767 84.016219,74.799914 75.263615,77.013663 67.23626,73.36782 Z M 85.814859,57.764151 c 0,-1.108372 -1.160579,-1.5 -4.445209,-1.5 H 76.924441 L 76.61965,51.59232 c -0.170346,-2.611069 -0.856171,-4.853346 -1.554791,-5.083333 -0.915089,-0.301249 -1.25,1.352363 -1.25,6.171831 v 6.583333 h 6 c 4.666667,0 6,-0.333333 6,-1.5 z"
     style="fill:#aadaca" />
  <path
     inkscape:connector-curvature="0"
     id="path24"
     d="m 69.314859,74.060444 c -3.622334,-1.26276 -8.165188,-5.313635 -10.089276,-8.996633 -1.850773,-3.542662 -1.802755,-12.140876 0.08823,-15.797627 5.013736,-9.695497 19.114015,-11.960251 27.469016,-4.41201 7.338776,6.630144 7.56823,17.807115 0.510456,24.86489 -4.966336,4.96633 -11.594434,6.566866 -17.978426,4.34138 z M 86.383957,58.152348 c 0.99827,-1.615235 -1.513517,-2.855303 -5.819098,-2.872884 l -3.75,-0.01531 v -4.573324 c 0,-3.815478 -0.289993,-4.518256 -1.75,-4.241006 -1.326617,0.25192 -1.824954,1.509067 -2.059812,5.196265 -0.170397,2.67517 -0.07202,5.483622 0.218615,6.241005 0.654272,1.705006 12.127559,1.936259 13.160295,0.265257 z"
     style="fill:#8dcdb8" />
  <path
     inkscape:connector-curvature="0"
     id="path22"
     d="M 71.314859,74.345212 C 60.271166,71.644058 54.762011,60.155126 59.679091,50.079688 66.732111,35.627558 87.419779,37.987869 91.696373,53.732623 94.833602,65.28268 83.037572,77.212447 71.314859,74.345212 Z m 15.31433,-16.831061 c -0.2504,-1.31861 -1.501017,-1.825134 -5.073324,-2.054791 L 76.814859,55.154569 V 50.70936 c 0,-3.778542 -0.299948,-4.445209 -2,-4.445209 -1.794872,0 -2,0.666667 -2,6.5 v 6.5 h 7.073324 c 6.19643,0 7.032126,-0.216951 6.741006,-1.75 z"
     style="fill:#74c7ae" />
</svg>
