<?xml version="1.0" encoding="UTF-8" standalone="no"?>
<!-- Created with Inkscape (http://www.inkscape.org/) -->

<svg
   xmlns:dc="http://purl.org/dc/elements/1.1/"
   xmlns:cc="http://creativecommons.org/ns#"
   xmlns:rdf="http://www.w3.org/1999/02/22-rdf-syntax-ns#"
   xmlns:svg="http://www.w3.org/2000/svg"
   xmlns="http://www.w3.org/2000/svg"
   xmlns:sodipodi="http://sodipodi.sourceforge.net/DTD/sodipodi-0.dtd"
   xmlns:inkscape="http://www.inkscape.org/namespaces/inkscape"
   version="1.1"
   id="svg36"
   width="111"
   height="40"
   viewBox="0 0 111 40"
   sodipodi:docname="logo.svg"
   inkscape:version="0.92.4 (5da689c313, 2019-01-14)">
  <metadata
     id="metadata42">
    <rdf:RDF>
      <cc:Work
         rdf:about="">
        <dc:format>image/svg+xml</dc:format>
        <dc:type
           rdf:resource="http://purl.org/dc/dcmitype/StillImage" />
        <dc:title></dc:title>
      </cc:Work>
    </rdf:RDF>
  </metadata>
  <defs
     id="defs40" />
  <sodipodi:namedview
     pagecolor="#ffffff"
     bordercolor="#666666"
     borderopacity="1"
     objecttolerance="10"
     gridtolerance="10"
     guidetolerance="10"
     inkscape:pageopacity="0"
     inkscape:pageshadow="2"
     inkscape:window-width="640"
     inkscape:window-height="480"
     id="namedview38"
     showgrid="false"
     inkscape:zoom="11.243635"
     inkscape:cx="48.641424"
     inkscape:cy="18.997972"
     inkscape:current-layer="svg36" />
  <path
     inkscape:connector-curvature="0"
     id="path155"
     d="m 5.8893921,38.266818 c 0,-0.653722 17.8333329,-1 51.4999999,-1 h 51.499998 v -16 c 0,-10 0.375,-16.0000002 1,-16.0000002 0.62745,0 1,6.3333332 1,17.0000002 v 17 H 58.389392 c -34.333333,0 -52.4999999,-0.346032 -52.4999999,-1 z m -4,-20 V 1.2668178 H 54.389392 c 34.333333,0 52.499998,0.3460317 52.499998,1 0,0.6537217 -17.833331,1 -51.499998,1 H 3.8893921 V 19.266818 c 0,10 -0.375,16 -1,16 -0.627451,0 -1,-6.333333 -1,-17 z"
     style="fill:#faced9" />
  <path
     inkscape:connector-curvature="0"
     id="path153"
     d="m 2.8893921,36.266818 c -0.9012919,-0.58246 -1.0246326,-0.975486 -0.309017,-0.984687 0.6550407,-0.0084 1.4690983,0.434687 1.809017,0.984687 0.7673048,1.241525 0.4211232,1.241525 -1.5,0 z m 35.2320029,-8 c 0,-1.925 0.205795,-2.7125 0.457323,-1.75 0.251527,0.9625 0.251527,2.5375 0,3.5 -0.251528,0.9625 -0.457323,0.175 -0.457323,-1.75 z m 16.149761,-8.5 c 0.002,-6.6 0.16382,-9.169866 0.35965,-5.710812 0.19583,3.459053 0.194213,8.859053 -0.0036,12 -0.197803,3.140946 -0.358027,0.310812 -0.35605,-6.289188 z m 9,0 c 0.002,-6.6 0.16382,-9.169866 0.35965,-5.710812 0.19583,3.459053 0.194213,8.859053 -0.0036,12 -0.197803,3.140946 -0.358027,0.310812 -0.35605,-6.289188 z m -46.038954,0 c 0.0036,-4.4 0.179441,-6.075605 0.390687,-3.723567 0.211245,2.352038 0.208273,5.952038 -0.0066,8 -0.214882,2.047962 -0.387719,0.123567 -0.384087,-4.276433 z m 67.98533,0 c 0.0044,-3.85 0.185183,-5.302463 0.401658,-3.227696 0.216476,2.074768 0.212846,5.224768 -0.0081,7 -0.220878,1.775233 -0.397994,0.0777 -0.393558,-3.772304 z m 14.981728,1 c 0.006,-3.3 0.1923,-4.529441 0.41486,-2.732091 0.22257,1.79735 0.21797,4.49735 -0.0102,6 -0.22818,1.50265 -0.41027,0.03209 -0.40466,-3.267909 z m -71.114919,-1 c 0.02038,-1.65 0.244498,-2.203936 0.498042,-1.230968 0.253543,0.972967 0.236869,2.322967 -0.03705,3 -0.273927,0.677032 -0.481372,-0.119032 -0.460992,-1.769032 z m 8.962946,-5.5 c 0,-1.375 0.226973,-1.9375 0.504386,-1.25 0.277412,0.6875 0.277412,1.8125 0,2.5 -0.277413,0.6875 -0.504386,0.125 -0.504386,-1.25 z M 107.86933,3.7426518 c -1.8383,-2.2150244 -0.79223,-2.4696668 1.27006,-0.3091673 0.9625,1.0083333 1.3551,1.8333333 0.87244,1.8333333 -0.48265,0 -1.44678,-0.6858747 -2.1425,-1.524166 z"
     style="fill:#f48eaa" />
  <path
     inkscape:connector-curvature="0"
     id="path151"
     d="m 1.8893921,37.766818 c 0,-1.68232 0.183683,-1.750481 2.412469,-0.895215 1.8306795,0.702497 1.1441226,2.395215 -0.971486,2.395215 -0.7925406,0 -1.440983,-0.675 -1.440983,-1.5 z M 108.55606,3.6001511 c -1.15064,-1.1506337 -0.72824,-2.3333333 0.83333,-2.3333333 0.825,0 1.5,0.675 1.5,1.5 0,1.5615743 -1.1827,1.983967 -2.33333,0.8333333 z"
     style="fill:#f27899" />
  <path
     inkscape:connector-curvature="0"
     id="path149"
     d="m 77.238806,23.266818 c 0,-4.675 0.172256,-6.5875 0.382791,-4.25 0.210535,2.3375 0.210535,6.1625 0,8.5 -0.210535,2.3375 -0.382791,0.425 -0.382791,-4.25 z"
     style="fill:#f05c84" />
  <path
     inkscape:connector-curvature="0"
     id="path147"
     d="m 48.047287,14.266818 c 0,-1.375 0.226973,-1.9375 0.504386,-1.25 0.277412,0.6875 0.277412,1.8125 0,2.5 -0.277413,0.6875 -0.504386,0.125 -0.504386,-1.25 z"
     style="fill:#ee4b76" />
  <path
     inkscape:connector-curvature="0"
     id="path145"
     d="M 12.889392,19.642988 V 8.0191575 l 5.559423,0.4610306 c 6.964835,0.5775784 9.465413,2.8273539 10.178974,9.1580479 0.979676,8.691663 -3.254539,13.628582 -11.688737,13.628582 h -4.04966 z m 10.171259,5.968842 c 2.354412,-2.130713 2.457937,-8.992277 0.173753,-11.516271 -0.910243,-1.005808 -2.710243,-1.828741 -4,-1.828741 -2.251571,0 -2.345012,0.298852 -2.345012,7.5 0,7.030522 0.135914,7.5 2.171259,7.5 1.194193,0 2.994193,-0.744744 4,-1.654988 z M 33.889392,19.766818 V 8.2668178 h 5.30887 c 7.034941,0 8.928653,1.4546193 8.514022,6.5398842 -0.282556,3.465416 -0.726044,4.090428 -3.550159,5.003279 l -3.227267,1.043164 4.554815,5.206836 c 4.165294,4.761557 4.359372,5.206837 2.269429,5.206837 -1.286331,0 -3.943125,-1.61874 -6.077547,-3.702948 l -3.792163,-3.702948 v 3.702948 c 0,3.036281 -0.360073,3.702948 -2,3.702948 -1.884058,0 -2,-0.666667 -2,-11.5 z m 10.5,-5.5 c 0,-0.961362 -1.167048,-1.612524 -3.25,-1.813358 -2.746111,-0.264775 -3.25,0.01637 -3.25,1.813358 0,1.796985 0.503889,2.078133 3.25,1.813358 2.082952,-0.200834 3.25,-0.851996 3.25,-1.813358 z m 10.5,5.5 c 0,-10.8333335 0.115942,-11.5000002 2,-11.5000002 1.884058,0 2,0.6666667 2,11.5000002 0,10.833333 -0.115942,11.5 -2,11.5 -1.884058,0 -2,-0.666667 -2,-11.5 z m 9,0 V 8.2668178 h 3.416667 c 2.826876,0 3.583097,0.4747095 4.380803,2.7500002 l 0.964136,2.75 1.094446,-2.75 c 0.904557,-2.2728668 1.706001,-2.7500002 4.619197,-2.7500002 h 3.524751 V 19.766818 c 0,10.833333 -0.115942,11.5 -2,11.5 -1.841404,0 -2.006469,-0.693858 -2.081574,-8.75 -0.08861,-9.504973 -0.111194,-9.500863 -4.12122,0.75 -0.924589,2.363535 -1.105657,2.172484 -3.317115,-3.5 l -2.339143,-6 -0.07047,8.75 c -0.06492,8.059842 -0.228228,8.75 -2.070478,8.75 -1.884058,0 -2,-0.666667 -2,-11.5 z m 24,9.5 c -1.644444,-1.644444 -2,-3.333333 -2,-9.5 0,-6.166667 0.355556,-7.855556 2,-9.5 2.392506,-2.392506 6.714825,-2.5884731 9.777494,-0.4432962 1.979492,1.3864912 2.222506,2.4252412 2.222506,9.5000002 0,9.070246 -1.683903,11.943296 -7,11.943296 -1.666667,0 -3.888889,-0.888889 -5,-2 z M 95.68463,19.44603 95.979869,12.125243 93.18463,12.44603 c -2.666803,0.306049 -2.809207,0.591329 -3.09926,6.208816 -0.37776,7.316109 0.173551,8.840503 3.049551,8.432109 2.072607,-0.294312 2.278287,-0.91069 2.549709,-7.640925 z"
     style="fill:#e80c47" />
</svg>
