<?xml version="1.0" encoding="UTF-8" standalone="no"?>
<!-- Created with Inkscape (http://www.inkscape.org/) -->

<svg
   xmlns:dc="http://purl.org/dc/elements/1.1/"
   xmlns:cc="http://creativecommons.org/ns#"
   xmlns:rdf="http://www.w3.org/1999/02/22-rdf-syntax-ns#"
   xmlns:svg="http://www.w3.org/2000/svg"
   xmlns="http://www.w3.org/2000/svg"
   xmlns:sodipodi="http://sodipodi.sourceforge.net/DTD/sodipodi-0.dtd"
   xmlns:inkscape="http://www.inkscape.org/namespaces/inkscape"
   version="1.1"
   id="svg169"
   width="80"
   height="24"
   viewBox="0 0 80 24"
   sodipodi:docname="logo-2.svg"
   inkscape:version="0.92.4 (5da689c313, 2019-01-14)">
  <metadata
     id="metadata175">
    <rdf:RDF>
      <cc:Work
         rdf:about="">
        <dc:format>image/svg+xml</dc:format>
        <dc:type
           rdf:resource="http://purl.org/dc/dcmitype/StillImage" />
        <dc:title></dc:title>
      </cc:Work>
    </rdf:RDF>
  </metadata>
  <defs
     id="defs173" />
  <sodipodi:namedview
     pagecolor="#ffffff"
     bordercolor="#666666"
     borderopacity="1"
     objecttolerance="10"
     gridtolerance="10"
     guidetolerance="10"
     inkscape:pageopacity="0"
     inkscape:pageshadow="2"
     inkscape:window-width="640"
     inkscape:window-height="480"
     id="namedview171"
     showgrid="false"
     inkscape:zoom="15.600543"
     inkscape:cx="45.519301"
     inkscape:cy="7.8595161"
     inkscape:current-layer="svg169" />
  <path
     inkscape:connector-curvature="0"
     id="path191"
     d="m 23,21.0641 c 0,-1.65 0.372063,-3 0.826807,-3 0.454744,0 0.628669,1.35 0.386501,3 -0.242169,1.65 -0.614232,3 -0.826807,3 -0.212576,0 -0.386501,-1.35 -0.386501,-3 z m 25.349414,-5 c 0,-4.675 0.172256,-6.5874998 0.382791,-4.25 0.210535,2.3375 0.210535,6.1625 0,8.5 -0.210535,2.3375 -0.382791,0.425 -0.382791,-4.25 z M 23.078947,6.4807669 c 0.04798,-1.164943 0.284941,-1.4018994 0.604167,-0.6041667 0.288871,0.721875 0.253344,1.584375 -0.07895,1.9166667 -0.332292,0.3322916 -0.568641,-0.2583334 -0.52522,-1.3125 z"
     style="fill:#f8bbcc" />
  <path
     inkscape:connector-curvature="0"
     id="path189"
     d="m 18.385359,12.0641 c 0,-6.8749998 0.159767,-9.6874998 0.355038,-6.2499998 0.195271,3.4375 0.195271,9.0624998 0,12.4999998 -0.195271,3.4375 -0.355038,0.625 -0.355038,-6.25 z m 25,0 c 0,-6.8749998 0.159767,-9.6874998 0.355038,-6.2499998 0.195271,3.4375 0.195271,9.0624998 0,12.4999998 -0.195271,3.4375 -0.355038,0.625 -0.355038,-6.25 z"
     style="fill:#f48da8" />
  <path
     inkscape:connector-curvature="0"
     id="path187"
     d="m 41.385359,12.0641 c 0,-6.8749998 0.159767,-9.6874998 0.355038,-6.2499998 0.195271,3.4375 0.195271,9.0624998 0,12.4999998 -0.195271,3.4375 -0.355038,0.625 -0.355038,-6.25 z m 21,0 c 0,-6.8749998 0.159767,-9.6874998 0.355038,-6.2499998 0.195271,3.4375 0.195271,9.0624998 0,12.4999998 -0.195271,3.4375 -0.355038,0.625 -0.355038,-6.25 z m -29.512914,9.25 C 31.628574,19.728044 31.663944,19.692674 33.25,20.936545 c 1.665748,1.306369 2.195479,2.127555 1.372445,2.127555 -0.207656,0 -0.995156,-0.7875 -1.75,-1.75 z m -28.5362388,-9.25 c 0,-4.1249998 0.176518,-5.8124998 0.3922622,-3.7499998 0.2157442,2.0624998 0.2157442,5.4374998 0,7.4999998 -0.2157442,2.0625 -0.3922622,0.375 -0.3922622,-3.75 z m 74.9919338,-0.5 c 0.0044,-3.8499998 0.185183,-5.3024629 0.401658,-3.2276955 0.216476,2.0747675 0.212846,5.2247675 -0.0081,6.9999995 -0.220878,1.775233 -0.397994,0.0777 -0.393558,-3.772304 z"
     style="fill:#ee527c" />
  <path
     inkscape:connector-curvature="0"
     id="path185"
     d="M 28.437091,16.8141 25.5,13.5641 l 3.25,2.937091 c 3.029455,2.737781 3.709652,3.562909 2.937091,3.562909 -0.1721,0 -1.6346,-1.4625 -3.25,-3.25 z m 35.882983,-4.75 c 0,-3.5749998 0.181495,-5.0374998 0.403322,-3.2499998 0.221826,1.7874998 0.221826,4.7124998 0,6.4999998 -0.221827,1.7875 -0.403322,0.325 -0.403322,-3.25 z"
     style="fill:#ec3365" />
  <path
     inkscape:connector-curvature="0"
     id="path183"
     d="m 68.320074,12.0641 c 0,-3.5749998 0.181495,-5.0374998 0.403322,-3.2499998 0.221826,1.7874998 0.221826,4.7124998 0,6.4999998 -0.221827,1.7875 -0.403322,0.325 -0.403322,-3.25 z M 33.078947,6.4807669 c 0.04798,-1.164943 0.284941,-1.4018994 0.604167,-0.6041667 0.288871,0.721875 0.253344,1.584375 -0.07895,1.9166667 -0.332292,0.3322916 -0.568641,-0.2583334 -0.52522,-1.3125 z"
     style="fill:#e9114b" />
  <path
     inkscape:connector-curvature="0"
     id="path181"
     d="M 0,12.0641 V 0.06410023 h 4.0496599 c 4.7868946,0 9.4384131,2.17493877 11.0360801,5.16020707 C 16.793495,8.4152759 16.490843,16.385345 14.549401,19.348361 12.654135,22.240903 8.3245266,24.0641 3.3507767,24.0641 H 0 Z m 11.443296,4.777494 c 3.402952,-4.858395 0.75927,-11.7774938 -4.5,-11.7774938 H 4 v 6.9999998 7 h 2.943296 c 1.9079006,0 3.490915,-0.781835 4.5,-2.222506 z M 19,12.0641 V 0.06410023 h 4.777494 C 30.066174,0.06410023 33,2.1318537 33,6.5641002 33,10.234573 30.197312,13.0641 26.561654,13.0641 c -1.574342,0 -0.851615,1.15608 3.438346,5.5 5.145427,5.210147 5.294013,5.5 2.819432,5.5 -1.733418,0 -3.6461,-1.177493 -5.685288,-3.5 -1.690173,-1.925 -3.311789,-3.5 -3.603593,-3.5 -0.291803,0 -0.530551,1.575 -0.530551,3.5 0,2.833333 -0.380952,3.5 -2,3.5 -1.888889,0 -2,-0.666667 -2,-12 z M 30,6.5641002 c 0,-1.047619 -1.055556,-1.5 -3.5,-1.5 -2.444444,0 -3.5,0.452381 -3.5,1.5 0,1.047619 1.055556,1.5 3.5,1.5 2.444444,0 3.5,-0.452381 3.5,-1.5 z M 37,12.0641 C 37,0.7307669 37.111111,0.06410023 39,0.06410023 c 1.888889,0 2,0.66666667 2,11.99999977 0,11.333333 -0.111111,12 -2,12 -1.888889,0 -2,-0.666667 -2,-12 z m 7,0 V 0.06410023 h 3.402175 c 2.92076,0 3.575268,0.45988204 4.625433,3.24999997 l 1.223258,3.25 1.019227,-3.25 C 55.153974,0.49567906 55.734888,0.06410023 58.64466,0.06410023 H 62 V 12.0641 c 0,11.333333 -0.111111,12 -2,12 -1.850166,0 -2.005915,-0.692982 -2.078947,-9.25 L 57.842103,5.5641002 55.83564,11.320331 c -1.103554,3.165926 -2.383621,5.523133 -2.844592,5.238237 -0.460972,-0.284896 -1.660037,-2.875199 -2.66459,-5.75623 L 48.5,5.5641002 48.212474,14.8141 c -0.261934,8.4267 -0.462196,9.25 -2.25,9.25 C 44.121535,24.0641 44,23.320947 44,12.0641 Z m 24.5,10.805055 c -1.1,-0.623771 -2.330609,-1.622587 -2.734687,-2.219592 -1.0953,-1.618249 -0.917312,-15.4329333 0.22637,-17.5699223 1.940805,-3.62642707 9.728222,-3.38207193 12.243004,0.3841635 0.404078,0.6051628 0.741578,4.5551349 0.75,8.7777158 0.01419,7.111744 -0.178824,7.830128 -2.619546,9.75 C 73.412055,24.314418 71.43727,24.534775 68.5,22.869155 Z M 75,12.000742 V 4.9373832 l -3.25,0.3133585 c -3.180829,0.3066892 -3.25653,0.4278798 -3.556796,5.6941593 -0.398955,6.997156 0.122793,8.119199 3.775411,8.119199 H 75 Z"
     style="fill:#e8003e" />
</svg>
